<?xml version="1.0" standalone="no"?>
<!DOCTYPE svg PUBLIC "-//W3C//DTD SVG 20010904//EN"
 "http://www.w3.org/TR/2001/REC-SVG-20010904/DTD/svg10.dtd">
<svg version="1.0" xmlns="http://www.w3.org/2000/svg"
 width="500.000000pt" height="500.000000pt" viewBox="0 0 500.000000 500.000000"
 preserveAspectRatio="xMidYMid meet">

<g transform="translate(0.000000,500.000000) scale(0.100000,-0.100000)"
fill="#000000" stroke="none">
<path d="M1700 2510 c0 -438 2 -500 15 -500 13 0 15 62 15 500 0 438 -2 500
-15 500 -13 0 -15 -62 -15 -500z"/>
<path d="M955 2926 c-184 -49 -305 -178 -305 -326 0 -30 -6 -52 -15 -60 -21
-17 -19 -53 5 -83 11 -14 17 -32 14 -40 -3 -9 -1 -24 5 -35 6 -12 7 -31 2 -49
-19 -67 16 -145 80 -179 42 -21 177 -52 259 -59 127 -11 338 31 417 82 34 23
62 88 56 131 -3 20 -5 47 -5 60 1 12 2 37 3 55 1 17 10 42 21 54 21 22 18 53
-7 83 -7 8 -13 33 -13 55 -5 172 -189 320 -402 323 -36 0 -87 -5 -115 -12z
m257 -36 c152 -57 251 -182 239 -300 -7 -70 -90 -85 -456 -85 -215 0 -273 7
-304 36 -45 43 -17 159 60 243 107 117 308 164 461 106z m-441 -400 c35 -5
101 -10 147 -10 89 0 105 -12 58 -43 -42 -28 -72 -29 -155 -8 -44 12 -95 21
-114 21 -52 0 -84 35 -65 73 8 16 10 16 36 -3 16 -12 56 -25 93 -30z m715 28
c10 -33 -39 -66 -88 -59 -4 0 -37 -9 -73 -20 -74 -22 -107 -26 -145 -14 -26 8
-60 33 -60 45 0 4 48 10 107 14 116 7 186 21 218 43 27 18 33 17 41 -9z m-378
-70 c9 -15 13 -30 9 -34 -11 -11 -114 -17 -120 -7 -3 5 6 24 20 42 31 39 67
39 91 -1z m342 -28 c0 -105 -617 -139 -750 -41 -38 28 -32 46 18 49 45 3 145
-25 227 -64 72 -34 161 -28 225 15 14 10 41 18 60 19 20 1 58 11 85 22 28 10
69 19 93 20 35 0 42 -3 42 -20z m-300 -19 c0 -15 -66 -41 -103 -41 -39 0 -97
18 -97 30 0 5 31 6 69 3 42 -3 75 -1 87 5 23 14 44 15 44 3z m298 -94 c2 -25
-2 -55 -8 -66 -20 -38 -75 -70 -165 -96 -208 -61 -532 -14 -585 84 -13 26 -13
108 1 116 5 4 43 -18 82 -47 113 -86 136 -100 175 -109 45 -10 73 4 129 64 36
39 50 47 90 51 118 14 197 29 226 41 45 20 52 15 55 -38z m-553 -2 c11 -2 57
-4 103 -4 45 -1 82 -5 82 -10 0 -5 -18 -28 -40 -50 -58 -59 -87 -56 -184 15
-42 30 -76 57 -76 59 0 4 59 -1 115 -10z"/>
<path d="M975 2880 c-3 -5 3 -10 14 -10 12 0 21 5 21 10 0 6 -6 10 -14 10 -8
0 -18 -4 -21 -10z"/>
<path d="M1110 2870 c0 -5 7 -10 15 -10 8 0 15 5 15 10 0 6 -7 10 -15 10 -8 0
-15 -4 -15 -10z"/>
<path d="M870 2840 c-17 -11 -8 -23 14 -18 9 2 12 8 8 15 -5 8 -13 9 -22 3z"/>
<path d="M1050 2810 c0 -5 9 -10 20 -10 11 0 20 5 20 10 0 6 -9 10 -20 10 -11
0 -20 -4 -20 -10z"/>
<path d="M1190 2810 c0 -5 9 -10 20 -10 11 0 20 5 20 10 0 6 -9 10 -20 10 -11
0 -20 -4 -20 -10z"/>
<path d="M1280 2810 c0 -5 9 -10 21 -10 11 0 17 5 14 10 -3 6 -13 10 -21 10
-8 0 -14 -4 -14 -10z"/>
<path d="M955 2799 c-10 -15 3 -25 16 -12 7 7 7 13 1 17 -6 3 -14 1 -17 -5z"/>
<path d="M765 2769 c-4 -6 -5 -13 -2 -16 7 -7 27 6 27 18 0 12 -17 12 -25 -2z"/>
<path d="M850 2745 c-10 -13 -9 -15 9 -15 11 0 21 4 21 9 0 18 -18 21 -30 6z"/>
<path d="M1143 2753 c-18 -6 -16 -23 1 -23 17 0 30 16 19 23 -5 2 -14 2 -20 0z"/>
<path d="M1270 2736 c0 -9 7 -16 16 -16 9 0 14 5 12 12 -6 18 -28 21 -28 4z"/>
<path d="M1010 2720 c0 -5 6 -10 14 -10 8 0 18 5 21 10 3 6 -3 10 -14 10 -12
0 -21 -4 -21 -10z"/>
<path d="M1880 2774 c6 -14 10 -99 10 -189 0 -90 -4 -175 -10 -189 l-10 -26
93 0 c184 0 270 43 270 134 0 55 -22 92 -71 114 -20 9 -39 18 -41 19 -2 2 3
11 12 21 36 39 13 104 -45 126 -25 10 -70 16 -128 16 l-90 0 10 -26z m199 -10
c23 -19 31 -34 31 -57 -1 -46 -19 -63 -71 -69 -26 -3 -61 -13 -79 -22 -18 -9
-35 -16 -37 -16 -6 0 -3 158 3 174 5 12 20 16 64 16 48 0 64 -5 89 -26z m48
-150 c45 -22 66 -55 66 -106 0 -76 -81 -122 -206 -116 l-62 3 -3 79 c-3 88 4
103 68 137 44 23 92 24 137 3z"/>
<path d="M2457 2792 c-3 -4 -37 -88 -77 -187 -39 -99 -80 -192 -91 -207 l-20
-28 26 0 c19 0 25 5 25 22 0 12 10 48 22 80 l23 58 96 0 96 0 26 -71 c15 -39
24 -75 21 -80 -3 -5 11 -9 31 -9 l36 0 -20 28 c-10 15 -52 111 -92 214 -66
168 -87 205 -102 180z m50 -141 c23 -55 39 -102 35 -105 -3 -3 -41 -6 -84 -6
-55 0 -78 4 -78 12 0 19 72 198 80 198 3 0 25 -45 47 -99z"/>
<path d="M2720 2774 c6 -14 10 -99 10 -189 0 -90 -4 -175 -10 -189 -9 -24 -7
-26 16 -26 21 0 23 3 14 19 -6 12 -10 96 -10 202 0 159 2 181 14 169 8 -8 44
-91 79 -185 83 -217 78 -205 87 -205 4 0 23 42 43 93 100 261 119 307 128 307
14 0 12 -373 -3 -388 -9 -9 -4 -12 25 -12 35 0 36 1 27 26 -6 14 -10 99 -10
189 0 90 4 175 10 189 9 26 9 26 -35 26 -36 0 -45 -3 -45 -17 1 -22 -122 -353
-131 -353 -9 0 -129 323 -129 348 0 19 -5 22 -45 22 -44 0 -44 0 -35 -26z"/>
<path d="M3200 2774 c6 -14 10 -99 10 -189 0 -90 -4 -175 -10 -189 l-10 -26
93 0 c184 0 270 43 270 134 0 55 -22 92 -71 114 -20 9 -39 18 -41 19 -2 2 3
11 12 21 36 39 13 104 -45 126 -25 10 -70 16 -128 16 l-90 0 10 -26z m199 -10
c23 -19 31 -34 31 -57 -1 -46 -19 -63 -71 -69 -26 -3 -61 -13 -79 -22 -18 -9
-35 -16 -37 -16 -6 0 -3 158 3 174 5 12 20 16 64 16 48 0 64 -5 89 -26z m48
-150 c45 -22 66 -55 66 -106 0 -76 -81 -122 -206 -116 l-62 3 -3 79 c-3 88 4
103 68 137 44 23 92 24 137 3z"/>
<path d="M3701 2774 c-92 -46 -136 -147 -107 -246 33 -113 144 -178 256 -148
64 17 134 91 148 157 22 99 -23 194 -111 238 -66 32 -119 32 -186 -1z m187
-22 c40 -29 82 -114 82 -168 0 -99 -86 -194 -175 -194 -117 0 -204 140 -164
261 17 49 52 93 91 113 45 23 125 17 166 -12z"/>
<path d="M4151 2774 c-92 -46 -136 -147 -107 -246 33 -113 144 -178 256 -148
64 17 134 91 148 157 22 99 -23 194 -111 238 -66 32 -119 32 -186 -1z m187
-22 c40 -29 82 -114 82 -168 0 -99 -86 -194 -175 -194 -117 0 -204 140 -164
261 17 49 52 93 91 113 45 23 125 17 166 -12z"/>
<path d="M4220 2152 c-3 -56 -2 -102 3 -102 4 0 7 14 7 32 l0 32 35 -34 c19
-18 37 -31 40 -28 3 3 -12 21 -34 41 -38 34 -40 40 -43 99 -3 52 -4 46 -8 -40z"/>
<path d="M3190 2199 c0 -29 -3 -38 -12 -33 -10 6 -10 5 -1 -7 6 -8 13 -37 16
-64 2 -28 4 -8 5 48 1 53 0 97 -3 97 -3 0 -5 -18 -5 -41z"/>
<path d="M3630 2145 c0 -57 4 -95 10 -95 6 0 10 38 10 95 0 57 -4 95 -10 95
-6 0 -10 -38 -10 -95z"/>
<path d="M4030 2230 c0 -5 5 -10 10 -10 6 0 10 5 10 10 0 6 -4 10 -10 10 -5 0
-10 -4 -10 -10z"/>
<path d="M2710 2140 c0 -49 3 -90 8 -90 4 0 7 41 7 90 0 50 -3 90 -7 90 -5 0
-8 -40 -8 -90z"/>
<path d="M2805 2220 c3 -5 8 -10 11 -10 2 0 4 5 4 10 0 6 -5 10 -11 10 -5 0
-7 -4 -4 -10z"/>
<path d="M3760 2140 c0 -53 4 -90 10 -90 6 0 10 37 10 90 0 53 -4 90 -10 90
-6 0 -10 -37 -10 -90z"/>
<path d="M3870 2203 c0 -6 5 -15 10 -18 13 -8 13 -70 -1 -98 -10 -21 -9 -21
10 2 26 29 27 72 1 102 -10 13 -19 19 -20 12z"/>
<path d="M3358 2158 c7 -7 12 -31 12 -54 0 -24 5 -46 10 -49 13 -8 13 71 0 96
-6 10 -16 19 -22 19 -9 0 -9 -3 0 -12z"/>
<path d="M3483 2159 c12 -7 17 -23 17 -59 0 -31 4 -50 11 -50 8 0 10 17 7 51
-5 47 -18 69 -43 69 -5 -1 -2 -5 8 -11z"/>
<path d="M4143 2159 c12 -7 17 -23 17 -59 0 -31 4 -50 11 -50 8 0 10 17 7 51
-5 47 -18 69 -43 69 -5 -1 -2 -5 8 -11z"/>
<path d="M2785 2151 c-3 -5 -1 -12 5 -16 5 -3 10 1 10 9 0 18 -6 21 -15 7z"/>
<path d="M2852 2148 c-25 -25 -9 -98 21 -98 5 0 1 7 -7 16 -19 18 -21 65 -4
82 7 7 10 12 7 12 -3 0 -10 -5 -17 -12z"/>
<path d="M2924 2143 c4 -7 6 -29 4 -48 -4 -36 5 -36 16 1 4 14 0 28 -11 41
-10 10 -14 13 -9 6z"/>
<path d="M2980 2141 c-16 -31 -12 -56 12 -77 18 -15 20 -15 9 -2 -8 11 -12 34
-9 58 4 45 3 48 -12 21z"/>
<path d="M3060 2135 c6 -15 8 -37 4 -48 -4 -13 -2 -17 5 -13 16 10 13 62 -4
76 -14 11 -14 10 -5 -15z"/>
<path d="M3428 2105 c-1 -30 0 -55 5 -55 4 0 7 25 7 55 0 71 -7 71 -12 0z"/>
<path d="M3940 2105 c0 -30 5 -55 10 -55 6 0 10 25 10 55 0 30 -4 55 -10 55
-5 0 -10 -25 -10 -55z"/>
<path d="M3978 2153 c7 -3 16 -2 19 1 4 3 -2 6 -13 5 -11 0 -14 -3 -6 -6z"/>
<path d="M4030 2105 c0 -30 5 -55 10 -55 6 0 10 25 10 55 0 30 -4 55 -10 55
-5 0 -10 -25 -10 -55z"/>
<path d="M4088 2105 c-1 -30 0 -55 5 -55 4 0 7 25 7 55 0 71 -7 71 -12 0z"/>
<path d="M3557 2143 c-12 -11 -8 -68 5 -81 7 -7 23 -11 38 -11 20 1 21 2 5 6
-35 9 -47 25 -43 60 4 36 4 36 -5 26z"/>
<path d="M3107 2133 c-13 -12 -7 -51 9 -67 8 -9 25 -15 37 -15 21 2 21 2 -1 6
-25 5 -45 43 -36 68 6 16 2 20 -9 8z"/>
<path d="M4340 2130 c0 -5 13 -16 29 -25 16 -8 32 -23 34 -32 4 -14 5 -14 6 4
1 14 -10 28 -34 42 -19 11 -35 16 -35 11z"/>
<path d="M3306 2088 c-11 -24 1 -38 32 -37 23 2 24 2 5 6 -13 2 -23 13 -26 26
-3 19 -5 20 -11 5z"/>
</g>
</svg>
